<svg xmlns="http://www.w3.org/2000/svg" xmlns:xlink="http://www.w3.org/1999/xlink" width="115" height="77" viewBox="0 0 115 77">
    <defs>
        <path id="a" d="M48.748.326H.309v76.082h48.439V.326z"/>
        <path id="c" d="M52.741.326H0V76.407h52.741V.328z"/>
    </defs>
    <g fill="none" fill-rule="evenodd" opacity=".8">
        <g transform="translate(65.885 .266)">
            <mask id="b" fill="#fff">
                <use xlink:href="#a"/>
            </mask>
            <path fill="#FEFEFE" d="M7.348 3.88c-1.9 0-3.445 1.528-3.445 3.406v62.161c0 1.879 1.545 3.407 3.445 3.407h19.328c10.188 0 18.478-8.198 18.478-18.273 0-6.782-3.77-12.97-9.837-16.153l-2.236-1.172 1.857-1.7c3.763-3.451 5.922-8.336 5.922-13.403 0-10.076-8.29-18.273-18.478-18.273-.139 0-.276.005-.414.01l-.244.008-.186-.012c-.034-.002-.069-.006-.104-.006H7.348zm19.328 72.528H7.348c-3.88 0-7.039-3.122-7.039-6.96V7.285c0-3.838 3.158-6.96 7.039-6.96h14.087c.116 0 .23.007.343.014l.067-.002c.178-.006.357-.012.537-.012 12.17 0 22.072 9.792 22.072 21.827 0 5.273-1.957 10.38-5.433 14.334 6.052 4.035 9.727 10.775 9.727 18.094 0 12.035-9.902 21.827-22.072 21.827z" mask="url(#b)"/>
        </g>
        <g transform="translate(0 .266)">
            <mask id="d" fill="#fff">
                <use xlink:href="#c"/>
            </mask>
            <path fill="#FEFEFE" d="M7.038 3.88c-1.899 0-3.444 1.528-3.444 3.406v62.161c0 1.879 1.545 3.407 3.444 3.407h14.087c1.9 0 3.445-1.528 3.445-3.407V49.71H26.37c6.023 0 11.732-2.47 16.078-6.958 4.258-4.397 6.7-10.355 6.7-16.347 0-12.392-10.173-22.48-22.694-22.524H7.038zm14.087 72.528H7.038c-3.88 0-7.038-3.122-7.038-6.96V7.285C0 3.448 3.158.326 7.038.326h19.509c14.46.094 26.194 11.756 26.194 26.078 0 6.898-2.806 13.753-7.698 18.804-4.599 4.75-10.537 7.549-16.88 7.994v16.245c0 3.839-3.157 6.96-7.038 6.96z" mask="url(#d)"/>
        </g>
        <path fill="#FEFEFE" d="M46.804 59.672c-.534 0-.983.163-1.35.49-.368.327-.552.763-.552 1.308 0 .237.056.468.166.695.11.227.243.445.4.653.155.21.33.405.523.587.193.18.372.345.537.49.22-.127.459-.276.716-.45a5.45 5.45 0 0 0 .717-.572c.22-.208.403-.436.55-.68a1.49 1.49 0 0 0 .221-.777c0-.563-.188-.995-.565-1.294-.376-.3-.831-.45-1.363-.45zm-1.323 8.283c-.275.163-.547.332-.813.504a4.491 4.491 0 0 0-.716.572c-.212.21-.381.45-.51.722-.129.272-.193.59-.193.954 0 .363.073.69.22.98.148.291.34.536.58.736.238.2.518.36.84.477.32.118.647.177.978.177.642 0 1.198-.136 1.667-.409a9.091 9.091 0 0 0 1.391-1.008l-3.444-3.705zm8.541 3.678l4.353 4.55h-5.317l-1.626-1.825c-.808.817-1.676 1.408-2.603 1.77-.928.364-1.97.546-3.128.546a9.297 9.297 0 0 1-2.562-.355 6.864 6.864 0 0 1-2.218-1.076 5.314 5.314 0 0 1-1.556-1.812c-.386-.726-.58-1.57-.58-2.534 0-.617.106-1.203.318-1.757.21-.554.505-1.058.881-1.512a6.241 6.241 0 0 1 1.31-1.185 6.777 6.777 0 0 1 1.625-.804 51.708 51.708 0 0 1-.868-.981 5.923 5.923 0 0 1-.689-.98 4.659 4.659 0 0 1-.44-1.09 4.993 4.993 0 0 1-.152-1.281c0-.872.17-1.617.51-2.234a4.467 4.467 0 0 1 1.363-1.526c.57-.4 1.221-.69 1.956-.872a9.396 9.396 0 0 1 2.26-.273c.753 0 1.469.096 2.149.287.679.19 1.28.481 1.804.871.524.391.941.882 1.254 1.472.312.59.468 1.294.468 2.111 0 .582-.096 1.117-.289 1.608-.193.49-.455.95-.785 1.376-.33.427-.712.808-1.144 1.144a8.749 8.749 0 0 1-1.39.886l2.506 2.642 1.901-2.56h4.794l-4.105 5.394z"/>
    </g>
</svg>
